<?xml version="1.0" standalone="no"?>
<!DOCTYPE svg PUBLIC "-//W3C//DTD SVG 20010904//EN"
 "http://www.w3.org/TR/2001/REC-SVG-20010904/DTD/svg10.dtd">
<svg version="1.0" xmlns="http://www.w3.org/2000/svg"
 width="490.000000pt" height="265.000000pt" viewBox="0 0 490.000000 265.000000"
 preserveAspectRatio="xMidYMid meet">
<metadata>
Created by potrace 1.14, written by Peter Selinger 2001-2017
</metadata>
<g transform="translate(0.000000,265.000000) scale(0.100000,-0.100000)"
fill="#000000" stroke="none">
<path d="M2005 1982 c-43 -27 -109 -102 -145 -165 l-30 -54 -58 9 c-88 14
-131 27 -202 64 -54 28 -80 35 -155 40 -120 9 -136 8 -146 -8 -12 -18 -29 -79
-29 -104 0 -35 -21 -84 -40 -94 -10 -6 -42 -10 -70 -10 -44 0 -52 -3 -62 -25
-12 -27 -28 -31 -60 -14 -16 8 -24 8 -35 -4 -18 -18 -20 -61 -4 -81 11 -13 17
-12 48 0 19 8 36 14 37 12 1 -2 10 -16 19 -31 17 -26 21 -27 65 -21 68 9 89
-12 108 -101 8 -38 22 -80 30 -94 15 -22 20 -23 83 -16 36 4 85 8 107 10 44 4
82 19 151 61 44 26 216 69 221 54 12 -35 110 -154 151 -185 55 -40 75 -40 93
0 7 16 19 25 34 25 18 0 28 9 38 35 9 21 22 35 33 36 10 0 57 0 104 -1 l86 -1
12 46 c7 26 15 82 18 126 l6 79 31 4 c17 3 139 7 270 9 199 3 245 1 270 -11
22 -11 31 -12 34 -4 6 19 110 14 197 -8 98 -25 116 -25 149 1 14 11 26 17 26
14 0 -4 7 -2 15 5 12 10 15 10 15 -4 0 -22 20 -21 20 2 1 12 16 1 48 -35 58
-64 101 -83 189 -83 103 0 163 -48 163 -130 0 -36 17 -40 26 -5 13 51 -21 112
-79 141 -17 9 -70 20 -118 24 -73 6 -94 11 -123 33 -33 26 -54 62 -42 74 3 3
100 7 215 9 213 2 248 7 218 29 -12 8 -76 10 -232 7 l-217 -5 15 29 c31 60 95
94 177 94 64 0 109 19 143 59 31 38 42 71 33 106 -9 35 -26 31 -26 -5 0 -39
-22 -82 -56 -109 -20 -16 -41 -21 -83 -21 -104 0 -164 -32 -224 -120 -15 -21
-19 -23 -27 -10 -8 11 -12 12 -18 3 -10 -15 -36 -11 -59 8 -32 28 -52 29 -132
4 -43 -14 -106 -28 -141 -32 -54 -5 -64 -4 -72 12 -6 9 -13 13 -17 9 -22 -30
-56 -34 -320 -34 l-269 0 -7 68 c-4 37 -14 93 -22 125 l-16 58 -103 -7 -103
-7 -17 37 c-11 22 -25 36 -36 36 -10 0 -31 14 -46 30 l-27 30 -30 -18z m54
-29 c11 -23 10 -29 -5 -40 -13 -9 -21 -10 -31 -2 -9 8 -13 8 -13 0 0 -6 6 -11
13 -11 6 0 3 -6 -8 -12 -11 -6 -38 -26 -59 -45 -22 -18 -46 -33 -53 -33 -8 0
-12 -4 -9 -9 3 -4 -3 -16 -13 -25 -12 -11 -21 -13 -25 -7 -8 12 44 101 59 101
5 0 17 15 26 33 9 18 25 33 36 35 12 2 23 12 26 23 8 28 42 24 56 -8z m60 -49
c-9 -11 -8 -14 6 -14 10 0 15 -6 13 -17 -2 -10 -10 -18 -18 -18 -8 0 -20 -6
-26 -14 -9 -12 -12 -12 -19 -1 -7 11 -10 10 -15 -4 -6 -19 -101 -76 -126 -76
-8 0 -13 -4 -10 -9 3 -5 -12 -20 -34 -35 -40 -26 -49 -22 -30 14 7 12 17 17
28 14 12 -4 13 -3 5 3 -10 7 2 23 43 61 31 29 60 50 65 46 5 -3 9 1 9 10 0 8
23 26 51 40 53 26 80 26 58 0z m-572 -70 c30 -19 57 -71 40 -77 -9 -3 -8 -8 3
-21 13 -16 12 -20 -3 -31 -9 -7 -17 -22 -17 -34 0 -11 -4 -21 -10 -21 -5 0
-10 5 -10 10 0 6 -8 10 -17 10 -17 -1 -17 -2 0 -15 18 -13 18 -14 -3 -25 -11
-6 -30 -10 -42 -8 -25 4 -58 45 -63 79 -1 13 -6 32 -10 42 -5 12 -2 17 9 17 9
0 16 7 16 16 0 8 -4 12 -10 9 -5 -3 -10 1 -10 10 0 8 7 18 16 22 10 3 14 13
11 25 -5 18 -2 19 36 13 23 -4 52 -13 64 -21z m636 19 c-18 -7 -16 -23 3 -23
10 0 14 -6 11 -14 -3 -7 -1 -18 5 -24 14 -14 1 -33 -17 -25 -8 3 -15 0 -15 -7
0 -7 -7 -10 -15 -6 -8 3 -15 1 -15 -5 0 -6 -7 -8 -16 -5 -9 4 -22 0 -28 -7 -6
-8 -40 -24 -76 -36 -36 -12 -72 -25 -80 -29 -8 -3 -19 -6 -25 -7 -5 0 -16 -4
-22 -8 -7 -5 -20 -4 -29 1 -14 8 -14 10 0 21 9 8 16 10 16 7 0 -4 16 10 36 29
20 20 42 34 49 31 7 -2 16 2 19 9 6 17 81 57 90 48 3 -4 6 -1 6 6 0 7 6 11 13
8 6 -2 18 3 24 12 11 14 14 14 24 1 9 -13 10 -13 6 2 -6 17 6 26 33 26 10 0
11 -1 3 -5z m-553 -70 c26 3 100 -14 100 -23 0 -4 15 -7 33 -6 30 1 32 -1 34
-34 1 -19 0 -29 -4 -21 -4 11 -7 11 -14 0 -6 -11 -17 -11 -56 -2 -26 7 -63 15
-80 18 -22 4 -33 12 -33 23 0 9 -3 28 -6 42 -3 15 -2 20 3 13 4 -6 15 -11 23
-10z m230 -33 c0 -5 -4 -10 -10 -10 -5 0 -10 5 -10 10 0 6 5 10 10 10 6 0 10
-4 10 -10z m378 -6 c16 10 24 -24 28 -129 5 -116 -2 -169 -22 -161 -7 3 -14 0
-16 -6 -6 -17 -95 10 -103 30 -4 11 -9 12 -16 5 -6 -6 -19 -8 -30 -6 -18 5
-19 6 -2 19 16 12 16 13 1 14 -9 0 -18 -5 -20 -11 -5 -15 -78 7 -95 28 -6 8
-16 12 -22 9 -13 -8 -81 20 -81 33 0 5 6 12 13 15 10 5 10 7 0 12 -7 3 -13 10
-13 15 0 15 60 40 80 34 13 -4 20 -2 20 7 0 13 110 61 140 61 8 0 17 3 20 7
10 14 95 37 101 27 4 -5 11 -7 17 -3z m-403 -26 c12 -74 10 -288 -4 -288 -5 0
-8 55 -8 123 0 67 -3 139 -7 160 -4 23 -3 37 3 37 6 0 13 -15 16 -32z m-118
-40 c7 -5 17 -7 23 -3 6 4 23 4 39 0 29 -6 29 -7 30 -85 1 -77 0 -80 -23 -86
-14 -3 -29 -3 -34 0 -6 3 -23 -1 -38 -9 -31 -16 -55 -19 -53 -7 3 16 -2 23
-11 17 -8 -5 -7 -11 1 -21 9 -11 7 -14 -9 -14 -19 0 -62 35 -62 50 0 4 -11 12
-24 19 -33 18 -29 65 9 106 17 18 35 39 42 48 10 12 20 13 55 5 24 -6 48 -15
55 -20z m-169 -148 c22 -14 32 -26 28 -36 -3 -8 0 -17 8 -20 8 -3 13 -22 14
-49 0 -35 -5 -50 -29 -74 -16 -17 -33 -31 -37 -32 -23 -2 -49 -7 -62 -10 -11
-3 -14 3 -12 20 2 15 0 21 -7 16 -6 -3 -14 2 -18 11 -4 10 -2 19 5 22 17 5 15
22 -3 22 -16 0 -21 35 -6 44 5 3 7 14 4 24 -6 23 42 82 65 82 10 0 32 -9 50
-20z m465 -40 c53 -18 97 -36 97 -41 0 -4 7 -6 15 -3 8 4 15 1 15 -6 0 -7 8
-9 20 -5 12 4 20 2 20 -5 0 -7 7 -10 15 -6 11 4 14 -2 11 -26 -2 -18 -8 -34
-14 -36 -6 -2 -9 -9 -6 -17 4 -10 0 -12 -15 -8 -12 3 -17 11 -14 19 3 8 0 14
-7 14 -6 0 -8 -4 -5 -10 3 -5 1 -10 -5 -10 -6 0 -13 7 -16 15 -4 8 -10 12 -15
9 -6 -3 -16 0 -24 6 -8 7 -15 10 -15 6 0 -4 -18 3 -40 14 -22 11 -40 24 -40
28 0 4 -15 12 -32 17 -25 8 -32 15 -31 30 1 11 0 14 -3 8 -8 -18 -24 -16 -24
2 0 8 -9 15 -20 15 -22 0 -26 10 -9 27 7 7 18 8 28 3 9 -5 60 -23 114 -40z
m-207 -22 c-3 -13 -6 -29 -6 -37 0 -9 -9 -12 -30 -9 -16 3 -30 2 -30 -2 0 -9
-102 -40 -112 -34 -4 3 -8 0 -8 -5 0 -6 -4 -11 -9 -11 -6 0 -6 12 -1 31 5 18
7 35 5 40 -7 10 62 32 75 24 5 -3 10 -2 10 4 0 11 27 18 79 20 30 1 33 -1 27
-21z m124 -36 c0 -7 6 -12 13 -10 23 5 127 -50 127 -68 0 -13 3 -14 14 -5 11
9 16 9 23 -1 4 -7 15 -13 23 -13 8 0 16 -8 18 -19 3 -12 0 -16 -8 -11 -9 5
-10 2 -6 -13 4 -11 3 -23 -2 -26 -14 -8 -112 44 -112 60 0 7 -6 11 -14 8 -18
-7 -161 130 -152 145 9 13 76 -28 76 -47z m-30 -49 c0 -7 6 -13 14 -13 7 0 33
-15 57 -33 24 -19 59 -42 76 -51 35 -17 39 -40 14 -70 -15 -18 -51 -5 -51 19
0 8 -6 12 -13 9 -15 -5 -57 39 -57 61 0 8 -5 14 -12 13 -13 -3 -62 65 -73 102
l-7 25 26 -24 c14 -14 26 -30 26 -38z"/>
<path d="M1970 1909 c0 -5 5 -7 10 -4 6 3 10 8 10 11 0 2 -4 4 -10 4 -5 0 -10
-5 -10 -11z"/>
<path d="M1940 1800 c0 -5 5 -10 10 -10 6 0 10 5 10 10 0 6 -4 10 -10 10 -5 0
-10 -4 -10 -10z"/>
<path d="M1510 1820 c0 -5 5 -10 10 -10 6 0 10 5 10 10 0 6 -4 10 -10 10 -5 0
-10 -4 -10 -10z"/>
<path d="M1470 1800 c0 -5 5 -10 10 -10 6 0 10 5 10 10 0 6 -4 10 -10 10 -5 0
-10 -4 -10 -10z"/>
<path d="M1550 1780 c0 -5 5 -10 10 -10 6 0 10 5 10 10 0 6 -4 10 -10 10 -5 0
-10 -4 -10 -10z"/>
<path d="M1500 1760 c0 -5 5 -10 10 -10 6 0 10 5 10 10 0 6 -4 10 -10 10 -5 0
-10 -4 -10 -10z"/>
<path d="M1455 1740 c-3 -5 1 -10 9 -10 9 0 16 5 16 10 0 6 -4 10 -9 10 -6 0
-13 -4 -16 -10z"/>
<path d="M1540 1720 c0 -5 5 -10 10 -10 6 0 10 5 10 10 0 6 -4 10 -10 10 -5 0
-10 -4 -10 -10z"/>
<path d="M1490 1700 c0 -5 5 -10 10 -10 6 0 10 5 10 10 0 6 -4 10 -10 10 -5 0
-10 -4 -10 -10z"/>
<path d="M1446 1681 c-4 -5 -2 -12 3 -15 5 -4 12 -2 15 3 4 5 2 12 -3 15 -5 4
-12 2 -15 -3z"/>
<path d="M1480 1640 c0 -5 5 -10 10 -10 6 0 10 5 10 10 0 6 -4 10 -10 10 -5 0
-10 -4 -10 -10z"/>
<path d="M2080 1780 c0 -5 5 -10 10 -10 6 0 10 5 10 10 0 6 -4 10 -10 10 -5 0
-10 -4 -10 -10z"/>
<path d="M2025 1730 c-3 -5 -1 -10 4 -10 6 0 11 5 11 10 0 6 -2 10 -4 10 -3 0
-8 -4 -11 -10z"/>
<path d="M1950 1710 c0 -5 5 -10 10 -10 6 0 10 5 10 10 0 6 -4 10 -10 10 -5 0
-10 -4 -10 -10z"/>
<path d="M1915 1700 c3 -5 8 -10 11 -10 2 0 4 5 4 10 0 6 -5 10 -11 10 -5 0
-7 -4 -4 -10z"/>
<path d="M2180 1720 c0 -5 5 -10 10 -10 6 0 10 5 10 10 0 6 -4 10 -10 10 -5 0
-10 -4 -10 -10z"/>
<path d="M2060 1690 c0 -5 5 -10 10 -10 6 0 10 5 10 10 0 6 -4 10 -10 10 -5 0
-10 -4 -10 -10z"/>
<path d="M2140 1690 c0 -5 5 -10 10 -10 6 0 10 5 10 10 0 6 -4 10 -10 10 -5 0
-10 -4 -10 -10z"/>
<path d="M2220 1690 c0 -5 5 -10 10 -10 6 0 10 5 10 10 0 6 -4 10 -10 10 -5 0
-10 -4 -10 -10z"/>
<path d="M2020 1660 c0 -5 5 -10 11 -10 5 0 7 5 4 10 -3 6 -8 10 -11 10 -2 0
-4 -4 -4 -10z"/>
<path d="M2100 1660 c0 -5 5 -10 10 -10 6 0 10 5 10 10 0 6 -4 10 -10 10 -5 0
-10 -4 -10 -10z"/>
<path d="M2180 1660 c0 -5 5 -10 10 -10 6 0 10 5 10 10 0 6 -4 10 -10 10 -5 0
-10 -4 -10 -10z"/>
<path d="M2060 1625 c0 -8 5 -15 10 -15 6 0 10 7 10 15 0 8 -4 15 -10 15 -5 0
-10 -7 -10 -15z"/>
<path d="M2140 1630 c0 -5 5 -10 10 -10 6 0 10 5 10 10 0 6 -4 10 -10 10 -5 0
-10 -4 -10 -10z"/>
<path d="M2220 1630 c0 -5 7 -10 15 -10 8 0 15 5 15 10 0 6 -7 10 -15 10 -8 0
-15 -4 -15 -10z"/>
<path d="M1900 1620 c0 -5 5 -10 10 -10 6 0 10 5 10 10 0 6 -4 10 -10 10 -5 0
-10 -4 -10 -10z"/>
<path d="M1980 1620 c0 -5 5 -10 10 -10 6 0 10 5 10 10 0 6 -4 10 -10 10 -5 0
-10 -4 -10 -10z"/>
<path d="M2100 1601 c0 -6 5 -13 10 -16 6 -3 10 1 10 9 0 9 -4 16 -10 16 -5 0
-10 -4 -10 -9z"/>
<path d="M2185 1600 c-3 -5 1 -10 10 -10 9 0 13 5 10 10 -3 6 -8 10 -10 10 -2
0 -7 -4 -10 -10z"/>
<path d="M1940 1590 c0 -5 5 -10 10 -10 6 0 10 5 10 10 0 6 -4 10 -10 10 -5 0
-10 -4 -10 -10z"/>
<path d="M2020 1590 c0 -5 5 -10 10 -10 6 0 10 5 10 10 0 6 -4 10 -10 10 -5 0
-10 -4 -10 -10z"/>
<path d="M2066 1571 c-4 -7 -5 -15 -2 -18 9 -9 19 4 14 18 -4 11 -6 11 -12 0z"/>
<path d="M2146 1571 c-4 -5 -2 -12 3 -15 5 -4 12 -2 15 3 4 5 2 12 -3 15 -5 4
-12 2 -15 -3z"/>
<path d="M2225 1570 c-3 -5 1 -10 9 -10 9 0 16 5 16 10 0 6 -4 10 -9 10 -6 0
-13 -4 -16 -10z"/>
<path d="M1900 1560 c0 -5 5 -10 10 -10 6 0 10 5 10 10 0 6 -4 10 -10 10 -5 0
-10 -4 -10 -10z"/>
<path d="M1980 1560 c0 -5 5 -10 10 -10 6 0 10 5 10 10 0 6 -4 10 -10 10 -5 0
-10 -4 -10 -10z"/>
<path d="M2106 1541 c-4 -5 -2 -12 3 -15 5 -4 12 -2 15 3 4 5 2 12 -3 15 -5 4
-12 2 -15 -3z"/>
<path d="M2185 1540 c-3 -5 1 -10 10 -10 9 0 13 5 10 10 -3 6 -8 10 -10 10 -2
0 -7 -4 -10 -10z"/>
<path d="M2020 1530 c0 -5 5 -10 10 -10 6 0 10 5 10 10 0 6 -4 10 -10 10 -5 0
-10 -4 -10 -10z"/>
<path d="M2146 1511 c-4 -5 -2 -12 3 -15 5 -4 12 -2 15 3 4 5 2 12 -3 15 -5 4
-12 2 -15 -3z"/>
<path d="M2230 1510 c0 -5 5 -10 10 -10 6 0 10 5 10 10 0 6 -4 10 -10 10 -5 0
-10 -4 -10 -10z"/>
<path d="M2190 1474 c0 -8 5 -12 10 -9 6 4 8 11 5 16 -9 14 -15 11 -15 -7z"/>
<path d="M1640 1680 c0 -5 5 -10 10 -10 6 0 10 5 10 10 0 6 -4 10 -10 10 -5 0
-10 -4 -10 -10z"/>
<path d="M1600 1650 c0 -5 5 -10 10 -10 6 0 10 5 10 10 0 6 -4 10 -10 10 -5 0
-10 -4 -10 -10z"/>
<path d="M1680 1650 c0 -5 5 -10 10 -10 6 0 10 5 10 10 0 6 -4 10 -10 10 -5 0
-10 -4 -10 -10z"/>
<path d="M1765 1650 c4 -6 11 -8 16 -5 14 9 11 15 -7 15 -8 0 -12 -5 -9 -10z"/>
<path d="M1560 1620 c0 -5 5 -10 10 -10 6 0 10 5 10 10 0 6 -4 10 -10 10 -5 0
-10 -4 -10 -10z"/>
<path d="M1640 1620 c0 -5 5 -10 10 -10 6 0 10 5 10 10 0 6 -4 10 -10 10 -5 0
-10 -4 -10 -10z"/>
<path d="M1720 1620 c0 -5 7 -10 15 -10 8 0 15 5 15 10 0 6 -7 10 -15 10 -8 0
-15 -4 -15 -10z"/>
<path d="M1600 1590 c0 -5 5 -10 10 -10 6 0 10 5 10 10 0 6 -4 10 -10 10 -5 0
-10 -4 -10 -10z"/>
<path d="M1680 1590 c0 -5 5 -10 10 -10 6 0 10 5 10 10 0 6 -4 10 -10 10 -5 0
-10 -4 -10 -10z"/>
<path d="M1760 1590 c0 -5 7 -10 15 -10 8 0 15 5 15 10 0 6 -7 10 -15 10 -8 0
-15 -4 -15 -10z"/>
<path d="M1565 1561 c-3 -5 -1 -12 5 -16 5 -3 10 1 10 9 0 18 -6 21 -15 7z"/>
<path d="M1645 1560 c-3 -5 -1 -10 4 -10 6 0 11 5 11 10 0 6 -2 10 -4 10 -3 0
-8 -4 -11 -10z"/>
<path d="M1730 1560 c0 -5 5 -10 10 -10 6 0 10 5 10 10 0 6 -4 10 -10 10 -5 0
-10 -4 -10 -10z"/>
<path d="M1606 1531 c-4 -5 -2 -12 3 -15 5 -4 12 -2 15 3 4 5 2 12 -3 15 -5 4
-12 2 -15 -3z"/>
<path d="M1685 1530 c-3 -5 1 -10 9 -10 9 0 16 5 16 10 0 6 -4 10 -9 10 -6 0
-13 -4 -16 -10z"/>
<path d="M1770 1530 c0 -5 5 -10 10 -10 6 0 10 5 10 10 0 6 -4 10 -10 10 -5 0
-10 -4 -10 -10z"/>
<path d="M1480 1530 c0 -5 5 -10 10 -10 6 0 10 5 10 10 0 6 -4 10 -10 10 -5 0
-10 -4 -10 -10z"/>
<path d="M1530 1510 c0 -5 5 -10 10 -10 6 0 10 5 10 10 0 6 -4 10 -10 10 -5 0
-10 -4 -10 -10z"/>
<path d="M1450 1490 c0 -5 5 -10 10 -10 6 0 10 5 10 10 0 6 -4 10 -10 10 -5 0
-10 -4 -10 -10z"/>
<path d="M1490 1470 c0 -5 7 -10 15 -10 8 0 15 5 15 10 0 6 -7 10 -15 10 -8 0
-15 -4 -15 -10z"/>
<path d="M1540 1450 c0 -5 5 -10 10 -10 6 0 10 5 10 10 0 6 -4 10 -10 10 -5 0
-10 -4 -10 -10z"/>
<path d="M1460 1430 c0 -5 5 -10 10 -10 6 0 10 5 10 10 0 6 -4 10 -10 10 -5 0
-10 -4 -10 -10z"/>
<path d="M1510 1410 c0 -5 5 -10 10 -10 6 0 10 5 10 10 0 6 -4 10 -10 10 -5 0
-10 -4 -10 -10z"/>
<path d="M1550 1390 c0 -5 7 -10 15 -10 8 0 15 5 15 10 0 6 -7 10 -15 10 -8 0
-15 -4 -15 -10z"/>
<path d="M1470 1370 c0 -5 4 -10 9 -10 6 0 13 5 16 10 3 6 -1 10 -9 10 -9 0
-16 -4 -16 -10z"/>
<path d="M1520 1350 c0 -5 5 -10 10 -10 6 0 10 5 10 10 0 6 -4 10 -10 10 -5 0
-10 -4 -10 -10z"/>
<path d="M1995 1470 c-3 -5 -1 -10 4 -10 6 0 11 5 11 10 0 6 -2 10 -4 10 -3 0
-8 -4 -11 -10z"/>
<path d="M2030 1460 c0 -5 5 -10 10 -10 6 0 10 5 10 10 0 6 -4 10 -10 10 -5 0
-10 -4 -10 -10z"/>
<path d="M1890 1440 c0 -5 5 -10 10 -10 6 0 10 5 10 10 0 6 -4 10 -10 10 -5 0
-10 -4 -10 -10z"/>
<path d="M1990 1369 c0 -5 5 -7 10 -4 6 3 10 8 10 11 0 2 -4 4 -10 4 -5 0 -10
-5 -10 -11z"/>
<path d="M2030 1359 c0 -5 5 -7 10 -4 6 3 10 8 10 11 0 2 -4 4 -10 4 -5 0 -10
-5 -10 -11z"/>
<path d="M1915 1340 c3 -5 8 -10 11 -10 2 0 4 5 4 10 0 6 -5 10 -11 10 -5 0
-7 -4 -4 -10z"/>
<path d="M2020 1280 c0 -5 5 -10 11 -10 5 0 7 5 4 10 -3 6 -8 10 -11 10 -2 0
-4 -4 -4 -10z"/>
<path d="M2035 1240 c3 -5 8 -10 11 -10 2 0 4 5 4 10 0 6 -5 10 -11 10 -5 0
-7 -4 -4 -10z"/>
<path d="M438 1253 c-40 -43 -109 -146 -102 -152 3 -3 14 5 23 18 9 14 23 34
32 44 15 19 16 18 17 -18 2 -41 27 -89 43 -80 5 4 1 17 -11 32 -11 14 -20 40
-20 57 0 30 3 33 70 56 39 13 70 28 70 32 0 11 -2 11 -75 -17 l-66 -25 31 40
c36 45 27 54 -12 13z"/>
<path d="M4498 1178 c-4 -51 -17 -55 -32 -11 -15 43 -29 55 -21 18 4 -17 16
-43 27 -58 24 -34 14 -76 -23 -94 -24 -13 -24 -13 -2 -13 31 0 50 34 62 110
13 80 13 90 2 90 -6 0 -11 -19 -13 -42z"/>
<path d="M4130 1190 c0 -5 6 -7 14 -4 17 6 46 -22 46 -44 0 -10 -10 -22 -22
-27 -29 -13 -46 -68 -28 -90 19 -23 38 -18 55 15 32 62 8 160 -40 160 -14 0
-25 -4 -25 -10z m60 -108 c0 -27 -15 -52 -32 -52 -11 0 -10 38 2 61 15 28 30
23 30 -9z"/>
<path d="M4378 1179 c-14 -8 -18 -23 -18 -64 0 -30 5 -55 10 -55 6 0 10 22 10
50 0 44 3 51 28 64 22 13 24 15 7 15 -11 0 -28 -4 -37 -10z"/>
<path d="M4256 1151 c-18 -20 -15 -61 5 -61 15 0 10 -22 -8 -43 -14 -16 -15
-19 -3 -15 8 2 22 18 30 34 14 27 15 28 18 7 5 -31 22 -29 22 2 0 14 -4 25
-10 25 -5 0 -10 16 -10 35 0 40 -17 46 -44 16z m30 -26 c-7 -29 -26 -34 -26
-7 0 18 20 45 28 37 2 -2 2 -16 -2 -30z"/>
<path d="M515 1135 c-31 -30 -29 -59 2 -63 27 -4 76 41 71 66 -5 28 -45 26
-73 -3z m58 9 c9 -10 -11 -42 -33 -54 -35 -19 -44 0 -14 31 29 30 36 34 47 23z"/>
<path d="M626 1102 c-14 -21 -26 -44 -26 -52 0 -9 5 -7 15 7 17 24 60 21 51
-3 -10 -27 9 -13 32 22 26 40 25 55 -2 25 -10 -11 -25 -17 -37 -14 -18 5 -19
7 -4 29 26 40 0 27 -29 -14z"/>
<path d="M759 1081 c-50 -51 -20 -109 36 -67 19 14 17 15 -17 9 -45 -7 -48 4
-13 41 26 28 51 35 41 11 -3 -8 -1 -15 5 -15 14 0 7 42 -8 48 -7 2 -27 -10
-44 -27z"/>
<path d="M4047 1082 c-26 -28 -32 -75 -12 -92 24 -20 57 17 59 66 1 44 -20 56
-47 26z m33 -30 c0 -27 -15 -52 -32 -52 -11 0 -10 38 2 61 15 28 30 23 30 -9z"/>
<path d="M862 1042 c-27 -49 -18 -59 25 -26 33 25 42 19 23 -17 -11 -20 3 -28
15 -9 3 5 15 15 27 21 19 10 20 9 14 -15 -4 -15 -2 -26 4 -26 5 0 10 14 10 31
0 26 -3 31 -20 26 -13 -3 -20 0 -20 8 0 23 -20 28 -39 11 -22 -20 -38 -21 -21
-1 6 8 10 19 8 25 -2 6 -13 -6 -26 -28z"/>
<path d="M3846 1054 c-21 -20 -20 -51 0 -62 15 -8 15 -11 -4 -30 -11 -11 -17
-23 -14 -27 4 -3 19 9 35 27 25 28 28 30 24 11 -7 -30 9 -30 16 -1 4 13 1 26
-6 30 -6 4 -10 21 -9 38 4 34 -16 41 -42 14z m34 -13 c0 -23 -25 -46 -35 -32
-7 13 12 51 25 51 6 0 10 -8 10 -19z"/>
<path d="M1059 1040 c-31 -47 -80 -152 -77 -162 2 -6 12 8 22 31 15 33 24 41
45 41 54 0 96 55 52 67 -11 3 -21 15 -23 26 -3 21 -3 21 -19 -3z m39 -47 c-2
-9 -15 -20 -30 -24 -31 -8 -36 2 -12 25 21 21 46 21 42 -1z"/>
<path d="M3388 1043 c-28 -32 -49 -83 -55 -132 -7 -58 10 -76 39 -41 19 23 25
70 9 70 -5 0 -7 -8 -5 -17 3 -10 -2 -27 -10 -38 -15 -19 -15 -18 -16 17 0 29
6 41 25 54 30 20 69 80 60 94 -9 15 -30 12 -47 -7z m32 -6 c0 -16 -40 -61 -47
-53 -6 6 29 66 39 66 4 0 8 -6 8 -13z"/>
<path d="M1483 1008 c-43 -46 -70 -105 -60 -132 5 -13 11 -15 27 -6 23 12 43
46 37 63 -2 6 -10 -1 -18 -17 -18 -38 -44 -49 -34 -15 9 30 34 59 51 59 19 0
87 68 79 80 -13 20 -42 9 -82 -32z m67 23 c0 -12 -49 -51 -63 -51 -6 0 2 14
18 30 29 30 45 38 45 21z"/>
<path d="M1156 993 c-4 -23 -5 -51 -2 -61 8 -23 -36 -67 -58 -59 -9 4 -16 2
-16 -3 0 -21 52 -9 77 18 28 29 83 107 83 116 0 16 -18 2 -40 -32 l-25 -37 -5
50 -6 50 -8 -42z"/>
<path d="M3718 1015 c-14 -44 -20 -105 -9 -105 6 0 11 11 11 24 0 33 40 44 48
13 6 -21 6 -21 13 3 11 39 10 82 -1 75 -5 -3 -10 -14 -10 -24 0 -10 -9 -21
-19 -24 -16 -4 -20 1 -23 27 -3 25 -4 27 -10 11z"/>
<path d="M3586 972 c-3 -20 -5 -48 -5 -62 l1 -25 7 25 c8 30 51 42 51 14 0
-12 3 -15 10 -8 13 13 21 94 9 94 -5 0 -9 -9 -9 -20 0 -10 -9 -24 -19 -30 -29
-15 -34 -13 -27 14 3 14 2 27 -3 30 -5 3 -11 -11 -15 -32z"/>
<path d="M1262 953 c-26 -52 -23 -64 7 -34 28 28 41 27 41 -3 0 -13 6 -26 13
-29 22 -7 57 16 63 42 3 14 7 31 9 38 7 23 -36 26 -59 4 -31 -29 -50 -27 -42
4 10 40 -7 28 -32 -22z m118 4 c0 -17 -29 -57 -41 -57 -12 0 -12 27 1 51 12
21 40 26 40 6z"/>
<path d="M2830 991 c0 -5 10 -11 23 -13 17 -2 23 -11 25 -35 3 -27 0 -33 -16
-33 -27 0 -44 -23 -45 -62 -2 -27 2 -34 20 -36 51 -7 88 133 45 171 -20 18
-52 23 -52 8z m50 -109 c0 -10 -10 -29 -22 -42 l-23 -25 -3 23 c-3 23 22 62
40 62 4 0 8 -8 8 -18z"/>
<path d="M3467 972 c-50 -55 -41 -131 10 -80 24 25 27 26 50 11 12 -8 23 -11
23 -5 0 5 -7 12 -15 16 -8 3 -15 16 -15 29 0 22 -16 47 -30 47 -4 0 -14 -8
-23 -18z m33 -14 c0 -17 -49 -76 -50 -60 0 19 29 72 40 72 6 0 10 -6 10 -12z"/>
<path d="M1549 928 c-49 -54 -31 -90 26 -52 22 14 25 15 31 1 3 -9 13 -18 21
-21 13 -5 14 -4 4 8 -7 8 -12 25 -10 38 3 31 -10 58 -28 58 -8 0 -27 -15 -44
-32z m61 3 c0 -13 -60 -55 -67 -47 -9 8 37 56 54 56 7 0 13 -4 13 -9z"/>
<path d="M3242 946 c-5 -6 -12 -19 -15 -28 -10 -29 -37 -22 -37 9 0 45 -17 13
-25 -46 -5 -38 -4 -52 4 -47 6 4 11 14 11 21 0 8 9 19 19 24 16 9 20 7 25 -14
4 -14 12 -25 20 -25 42 0 66 102 26 113 -10 3 -23 0 -28 -7z m33 -26 c3 -10 1
-28 -5 -40 -22 -40 -44 -15 -27 33 11 32 23 35 32 7z"/>
<path d="M1681 901 c-24 -56 -25 -61 -12 -61 5 0 11 9 14 20 7 29 47 27 47 -2
1 -18 6 -13 25 22 25 48 23 70 -2 33 -18 -26 -59 -32 -49 -8 3 8 9 22 12 30 3
8 2 15 -4 15 -5 0 -19 -22 -31 -49z"/>
<path d="M1812 892 c-24 -55 -29 -92 -8 -53 18 32 61 41 53 11 -9 -36 10 -21
27 21 18 44 15 65 -4 30 -6 -13 -21 -21 -36 -21 -22 0 -23 2 -14 21 6 11 10
25 8 31 -2 6 -14 -12 -26 -40z"/>
<path d="M3077 933 c-12 -3 -15 -11 -11 -27 4 -16 -3 -33 -21 -54 -22 -26 -24
-32 -10 -32 11 0 24 18 38 50 26 63 41 65 32 4 -8 -55 9 -53 19 2 7 33 -6 66
-23 63 -3 -1 -14 -3 -24 -6z"/>
<path d="M1944 915 c-4 -8 -3 -26 0 -39 5 -19 0 -29 -16 -40 -12 -9 -19 -19
-15 -22 4 -4 17 2 30 14 29 27 40 28 32 2 -9 -28 10 -25 23 4 8 19 8 26 -1 29
-9 3 -9 10 0 29 6 14 9 29 6 32 -12 12 -54 6 -59 -9z m46 -1 c0 -13 -21 -44
-30 -44 -14 0 -12 24 2 38 13 13 28 16 28 6z"/>
<path d="M2946 908 c-33 -47 -10 -113 29 -84 17 12 16 13 -6 12 -15 -1 -25 5
-27 17 -2 11 3 17 16 17 28 0 55 33 40 48 -18 18 -35 15 -52 -10z m44 -7 c0
-10 -30 -24 -37 -17 -3 3 -2 9 2 15 8 13 35 15 35 2z"/>
<path d="M2141 888 c-19 -51 -21 -67 -12 -72 5 -4 19 7 31 24 26 37 43 40 30
5 -13 -33 4 -41 24 -10 21 33 36 32 37 -2 2 -25 2 -26 6 -5 7 38 -3 55 -27 42
-16 -9 -20 -8 -20 5 0 20 -19 19 -42 -2 -19 -17 -19 -16 -13 10 9 33 -2 36
-14 5z"/>
<path d="M2347 899 c-19 -11 -47 -60 -47 -84 0 -21 16 -19 51 6 25 18 30 18
35 5 3 -9 13 -16 21 -16 12 0 12 3 -2 16 -10 10 -14 26 -11 37 5 20 -9 47 -23
47 -3 0 -14 -5 -24 -11z m33 -17 c0 -11 -59 -67 -64 -61 -9 8 36 69 50 69 8 0
14 -4 14 -8z"/>
<path d="M2720 883 c-22 -28 -24 -74 -3 -80 21 -7 63 44 63 77 0 39 -30 41
-60 3z m40 -31 c-15 -25 -50 -43 -50 -25 0 4 9 23 21 42 15 26 23 31 32 22 9
-9 8 -18 -3 -39z"/>
<path d="M2544 860 c-14 -21 -24 -44 -22 -51 2 -7 15 5 28 27 l24 39 4 -27 c2
-16 6 -28 10 -28 3 0 16 12 28 28 l23 27 -1 -33 c-1 -50 8 -48 16 4 3 26 4 50
1 52 -3 3 -15 -4 -28 -16 -29 -27 -37 -28 -37 -2 0 31 -17 24 -46 -20z"/>
</g>
</svg>
